<svg width="24" height="24" viewBox="0 0 24 24" fill="none" xmlns="http://www.w3.org/2000/svg">
<path d="M12 21.5C9.2 21.5 4 17.244 4 13.216V5.5305C4 5.3405 4.14884 5.198 4.34419 5.1885L4.8 5.179C4.8186 5.179 6.59535 5.141 8.42791 4.4C10.2977 3.64 11.507 2.766 11.5256 2.7565L11.7953 2.5665C11.8512 2.5285 11.9256 2.5 12 2.5C12.0744 2.5 12.1488 2.519 12.2047 2.5665L12.4744 2.766C12.4837 2.7755 13.7023 3.6495 15.5814 4.4095C17.414 5.1505 19.1907 5.1885 19.2093 5.1885L19.6558 5.198C19.8419 5.198 20 5.35 20 5.54V13.2255C20 17.244 14.8 21.5 12 21.5ZM18.7721 6.4235C18.0837 6.3665 16.6326 6.186 15.1349 5.578C13.5907 4.9605 12.4651 4.267 12 3.9535C11.5349 4.2575 10.4093 4.9605 8.86512 5.578C7.36744 6.186 5.92558 6.3665 5.22791 6.4235V13.216C5.22791 16.37 9.75814 20.2365 12 20.2365C12.8651 20.2365 14.5581 19.5145 16.214 17.9375C17.814 16.4175 18.7721 14.6505 18.7721 13.216V6.4235ZM11.3581 14.508C11.2465 14.6315 11.0884 14.698 10.9209 14.698C10.7535 14.698 10.6047 14.6315 10.4837 14.508L8.63256 12.608C8.57507 12.5494 8.52946 12.4798 8.49834 12.4032C8.46722 12.3266 8.4512 12.2444 8.4512 12.1615C8.4512 12.0786 8.46722 11.9964 8.49834 11.9198C8.52946 11.8432 8.57507 11.7736 8.63256 11.715C8.87442 11.468 9.25581 11.468 9.49767 11.7055L9.50698 11.715L10.9209 13.1685L14.4837 9.5015C14.7163 9.2545 15.107 9.2545 15.3488 9.492L15.3581 9.5015C15.6 9.7485 15.6 10.1475 15.3581 10.3945L11.3581 14.508Z" fill="black"/>
</svg>
