<svg width="24" height="24" viewBox="0 0 24 24" fill="none" xmlns="http://www.w3.org/2000/svg">
<path d="M19.3438 19H4.65624C3.74292 19 3 18.214 3 17.2478V6.75222C3 5.78597 3.74292 5 4.65624 5H19.3438C20.2571 5 21 5.78597 21 6.75222V17.2478C21.0002 18.214 20.2571 19 19.3438 19ZM4.65624 6.16823C4.3518 6.16823 4.10424 6.43038 4.10424 6.75222V17.2478C4.10424 17.5699 4.3518 17.8318 4.65624 17.8318H19.3438C19.6482 17.8318 19.8958 17.5696 19.8958 17.2478V6.75222C19.8958 6.43014 19.6482 6.16823 19.3438 6.16823H4.65624Z" fill="black"/>
<path d="M12.0001 13.2895C11.2353 13.2895 10.4702 12.9815 9.88792 12.3654L4.16602 6.31195L4.9467 5.48602L10.6688 11.5395C11.4031 12.3161 12.5978 12.3159 13.3319 11.5395L19.054 5.48602L19.8347 6.31195L14.1126 12.3654C13.5302 12.9815 12.7654 13.2895 12.0001 13.2895Z" fill="black"/>
<path d="M19.0538 18.322L13.3319 12.2688L14.1123 11.4424L19.8345 17.4961L19.0538 18.322ZM4.9467 18.322L4.16602 17.4961L9.88815 11.4424L10.6688 12.2688L4.9467 18.322Z" fill="black"/>
</svg>
